<svg width="1400" height="1564" viewBox="0 0 1400 1564" fill="none" xmlns="http://www.w3.org/2000/svg">
<g opacity="0.03">
<path d="M290.034 910.351C243.727 929.74 226.139 977.27 256.406 1004.4C318.675 1060.24 575.029 1032.66 587.091 994.809C598.973 957.522 386.662 869.882 290.034 910.351Z" stroke="#2E2D2B" stroke-width="2" stroke-miterlimit="10"/>
<path d="M404.777 786.165C510.551 749.114 688.157 1012.91 614.846 1075.19C569.772 1113.48 460.657 1108.7 371.674 1096.11C288.14 1084.3 168.78 1036 139.332 955.774C123.739 913.187 133.099 852.511 166.123 831.262C191.681 814.821 226.184 822.218 233.795 819.484C270.081 834.535 275.406 840.385 304.316 843.915C342.103 848.533 375.687 796.352 404.777 786.165Z" stroke="#2E2D2B" stroke-width="2" stroke-miterlimit="10"/>
<path d="M512.098 656.419C634.944 676.032 768.44 1061.33 635.18 1150.01C550.311 1206.48 402.355 1181.54 299.226 1151.69C204.494 1124.26 46.7511 1032.75 14.8372 901.587C-3.71477 825.378 18.8279 718.17 83.4179 687.16C134.904 662.448 201.243 683.697 212.923 685.333C281.963 722.474 287.546 741.369 338.953 754.09C407.018 770.912 460.758 648.182 512.098 656.419Z" stroke="#2E2D2B" stroke-width="2" stroke-miterlimit="10"/>
<path d="M611.64 527.536C747.277 563.691 840.944 1110.31 647.735 1225.68C523.038 1300.13 336.196 1255.47 218.999 1208.12C112.978 1165.29 -82.485 1030.54 -117.437 848.253C-138.522 738.321 -103.335 584.816 -7.07767 543.91C70.269 511.028 169.049 544.773 184.249 552.035C290.516 602.837 291.862 643.206 365.845 665.116C464.12 694.299 540.604 508.641 611.64 527.536Z" stroke="#2E2D2B" stroke-width="2" stroke-miterlimit="10"/>
<path d="M705.196 404.515C855.405 456.673 907.216 1164.6 654.304 1307.22C489.611 1399.27 263.961 1335.37 132.797 1270.43C15.3641 1212.3 -217.573 1034.31 -255.742 800.779C-279.203 657.226 -231.529 457.368 -103.593 406.499C-0.340645 365.48 130.095 413.593 149.566 424.565C286.548 501.76 290.091 551.071 386.628 582.014C515.136 623.559 615.283 373.303 705.196 404.515Z" stroke="#2E2D2B" stroke-width="2" stroke-miterlimit="10"/>
<path d="M-204.312 270.724C-75.1988 221.58 86.8145 283.993 110.68 298.742C278.007 402.162 284.194 460.204 403.252 500.471C562.014 554.165 686.419 238.671 794.469 283.052C960.439 351.225 969.755 1221.36 656.59 1390.32C452.249 1500.57 187.354 1416.92 42.3009 1334.29C-86.5205 1260.91 -356.763 1039.7 -398.239 754.874C-424.021 577.711 -363.948 331.478 -204.312 270.724Z" stroke="#2E2D2B" stroke-width="2" stroke-miterlimit="10"/>
<path d="M1192.82 181.066C1141.96 180.64 1080.97 92.4509 1126.58 77.7247C1152.92 69.2072 1222.67 82.6783 1250.06 106.65C1288.65 140.384 1227.81 181.369 1192.82 181.066Z" stroke="#2E2D2B" stroke-width="2" stroke-miterlimit="10"/>
<path d="M1054.6 90.0749C1059.58 78.2401 1082.88 72.984 1104.15 58.5715C1147.28 29.3208 1153.47 15.4239 1184.11 -2.21625C1196.06 -9.10867 1212.13 -18.1641 1227.82 -14.0175C1251.86 -7.66298 1257.85 19.8395 1288.36 68.277C1327.9 131.217 1342.88 147.489 1331.58 180.842C1328.95 188.597 1325.54 213.713 1306.49 229.033C1280.12 250.214 1249.2 233.852 1210.55 247.872C1164.13 264.683 1141.12 294.606 1120.97 281.382C1106.78 272.068 1106.25 246.561 1095.63 202.147C1087.53 168.312 1082.45 146.111 1072.6 128C1060.8 106.437 1049.06 103.232 1054.6 90.0749Z" stroke="#2E2D2B" stroke-width="2" stroke-miterlimit="10"/>
<path d="M976.862 114.742C977.725 93.7621 1010.68 83.6084 1037.84 53.293C1093.54 -8.89572 1067.74 -53.3323 1112.39 -98.7662C1131.33 -118.054 1161.06 -136.736 1190.85 -133.116C1233.14 -127.972 1247.34 -84.2978 1312.43 4.25024C1397.54 120.021 1433.79 142.693 1425.84 204.388C1424.22 216.963 1422.64 265.243 1389.38 294.304C1345.02 333.058 1291.85 297.8 1222.41 326.928C1144.82 359.429 1115.82 428.913 1089.65 414.534C1071.48 404.549 1078.44 364.337 1064.48 285.909C1054.59 230.165 1048.48 197.585 1028.72 170.901C1003.78 137.246 975.931 137.526 976.862 114.742Z" stroke="#2E2D2B" stroke-width="2" stroke-miterlimit="10"/>
<path d="M899.044 139.14C895.681 109.071 938.356 93.9526 971.459 47.7341C1039.61 -47.4149 980.852 -121.786 1040.59 -195.596C1066.16 -227.178 1110.01 -255.432 1153.81 -252.484C1214.51 -248.405 1236.94 -188.894 1336.52 -60.0454C1467.45 108.309 1523.84 137.952 1520.14 227.666C1519.41 245.16 1519.75 316.483 1472.3 359.339C1409.95 415.633 1334.42 361.412 1234.31 405.737C1125.47 453.927 1090.58 562.94 1058.32 547.451C1036.18 536.737 1050.36 481.867 1033.31 369.425C1021.54 291.771 1014.45 248.97 984.809 213.556C946.607 167.92 902.642 171.529 899.044 139.14Z" stroke="#2E2D2B" stroke-width="2" stroke-miterlimit="10"/>
<path d="M821.047 163.471C813.503 124.347 865.774 104.207 904.896 42.1194C985.359 -86.046 893.518 -190.06 968.623 -292.482C1000.73 -336.303 1058.82 -374.138 1116.59 -371.919C1195.75 -368.871 1226.05 -293.323 1360.39 -124.397C1536.73 96.8329 1613.47 133.368 1614.15 250.887C1614.29 273.301 1616.51 367.599 1554.92 424.307C1474.5 498.073 1376.76 424.923 1245.93 484.49C1105.81 548.303 1065.04 696.944 1026.81 680.313C1000.69 668.904 1022.1 599.33 1001.97 452.885C988.284 353.309 980.247 300.344 940.733 256.154C889.236 198.594 829.163 205.543 821.047 163.471Z" stroke="#2E2D2B" stroke-width="2" stroke-miterlimit="10"/>
<path d="M742.905 187.79C755.538 239.568 831.697 229.257 896.477 298.742C945.878 351.718 954.857 414.826 970.461 536.334C993.631 716.77 965.024 801.059 995.122 813.151C1039.37 830.937 1086.01 642.657 1257.43 563.231C1418.91 488.412 1539.08 580.647 1637.44 489.264C1713.26 418.804 1709.04 301.532 1708.06 274.086C1702.83 128.796 1605.86 85.3343 1384.1 -188.771C1215 -397.774 1176.86 -489.337 1079.19 -491.365C1007.45 -492.856 935.094 -445.416 896.477 -389.38C806.049 -258.256 931.149 -124.543 838.187 36.4933C793.135 114.529 731.146 139.622 742.905 187.79Z" stroke="#2E2D2B" stroke-width="2" stroke-miterlimit="10"/>
<path d="M1389.2 1021.16C1375.93 1014.43 1348.06 1027.39 1345.59 1047.57C1342.8 1070.47 1374.33 1089.41 1388.19 1083.52C1404.58 1076.55 1406.81 1030.06 1389.2 1021.16Z" stroke="#2E2D2B" stroke-width="2" stroke-miterlimit="10"/>
<path d="M1426.59 1142.81C1449.21 1121.66 1459.1 1082.85 1470.41 1016.33C1481.62 950.361 1479.86 903.134 1470.01 899.704C1464.64 897.855 1449.43 912.324 1436.38 922.926C1411.95 942.718 1370.14 940.521 1359.42 942.662C1320.19 950.507 1308.67 965.076 1292.27 992.982C1284.68 1005.87 1266.98 1034.45 1259.19 1068.07C1247.31 1118.98 1194.05 1134.67 1200.54 1155.08C1206 1172.12 1258.76 1176.25 1292.97 1176.74C1342.01 1177.43 1391.62 1175.47 1426.59 1142.81Z" stroke="#2E2D2B" stroke-width="2" stroke-miterlimit="10"/>
<path d="M1465.8 1199.66C1502.99 1161.87 1517.62 1098.45 1540.15 979.847C1563.04 860.67 1562.89 778.925 1551.61 775.876C1543.15 773.545 1515.74 803.009 1492.45 824.067C1448.54 863.931 1369.94 857.375 1353.74 859.93C1279.87 871.339 1261.67 898.673 1233.04 950.339C1221.11 971.856 1188.39 1024.31 1173.48 1086.25C1150.53 1181.14 1041.74 1205.99 1050.74 1241.17C1058.27 1270.46 1159.15 1274.95 1222.63 1272.55C1312.27 1269.06 1402.97 1263.55 1465.8 1199.66Z" stroke="#2E2D2B" stroke-width="2" stroke-miterlimit="10"/>
<path d="M1504.8 1256.15C1556.58 1201.73 1575.78 1113.65 1609.66 942.998C1644.06 770.575 1645.66 654.502 1633 651.611C1621.39 648.921 1581.81 693.302 1548.34 724.872C1485.06 784.909 1369.57 773.87 1347.88 776.762C1239.39 791.242 1214.41 831.733 1173.62 907.269C1157.35 937.406 1109.63 1013.74 1087.58 1103.97C1053.6 1242.85 889.269 1276.83 900.759 1326.79C910.355 1368.34 1059.39 1373.38 1152.11 1367.87C1282.32 1360.53 1414.26 1351.32 1504.8 1256.15Z" stroke="#2E2D2B" stroke-width="2" stroke-miterlimit="10"/>
<path d="M1543.68 1312.6C1610.08 1241.55 1633.84 1128.8 1679.06 906.104C1725.02 680.458 1728.38 530.091 1714.28 527.301C1699.53 524.353 1647.75 583.471 1604.12 625.577C1521.35 705.652 1369.1 690.242 1341.92 693.548C1198.81 710.908 1166.85 764.658 1114.1 864.144C1093.41 902.876 1030.76 1003.11 1001.59 1121.64C956.55 1304.5 736.672 1347.62 750.684 1412.37C762.331 1466.16 959.509 1471.53 1081.49 1463.17C1252.23 1451.66 1425.47 1439.1 1543.68 1312.6Z" stroke="#2E2D2B" stroke-width="2" stroke-miterlimit="10"/>
<path d="M1335.9 610.301C1158.19 630.474 1119.55 697.718 1054.53 820.997C1029.54 868.392 951.83 992.467 915.534 1139.28C859.485 1366.14 584.03 1418.4 600.542 1497.91C614.263 1564.03 859.575 1569.64 1010.82 1558.43C1222.14 1542.74 1436.66 1526.85 1582.51 1369.03C1663.54 1281.33 1691.84 1143.95 1748.41 869.188C1805.84 590.308 1810.96 405.681 1795.49 402.968C1777.56 399.83 1713.66 473.574 1659.85 526.247C1557.58 626.35 1368.58 606.592 1335.9 610.301Z" stroke="#2E2D2B" stroke-width="2" stroke-miterlimit="10"/>
<path d="M-109.029 71.2356C-88.8521 148.565 55.9767 112.243 228.381 286.414C290.158 348.826 331.578 414.108 413.341 424.262C421.591 425.282 503.5 434.236 561.308 381.675C634.037 315.552 589.646 223.821 674.526 95.8914C705.79 48.7651 710.991 62.4492 733.937 25.2861C831.865 -133.352 682.507 -294.399 768.687 -455.502C808.358 -529.66 867.332 -546.684 861.727 -556.367C837.537 -597.912 -163.553 -137.14 -109.029 71.2356Z" stroke="#2E2D2B" stroke-width="2" stroke-miterlimit="10"/>
<path d="M435.76 318.545C440.715 317.872 494.723 321.907 531.771 284.744C578.616 237.819 545.222 173.21 598.894 85.9843C618.646 53.8645 621.392 62.5725 635.449 37.1658C695.421 -71.2525 587.786 -180.321 640.493 -286.453C664.886 -335.585 703.391 -346.849 697.663 -351.645C671.757 -373.522 10.9811 -50.34 62.8819 90.2878C82.3418 143.029 188.576 124.313 310.133 237.909C354.333 279.185 384.263 325.527 435.76 318.545Z" stroke="#2E2D2B" stroke-width="2" stroke-miterlimit="10"/>
<path d="M458.179 212.816C459.592 209.263 486.002 209.342 502.233 187.813C523.308 159.884 500.866 122.677 523.263 76.0883C531.479 58.9861 531.816 62.6397 536.972 49.0454C559.111 -9.42249 492.974 -66.1757 512.311 -117.415C521.357 -141.533 538.171 -145.646 533.688 -146.935C500.911 -142.284 186.188 36.7735 234.737 109.34C253.693 137.694 321.545 136.338 391.829 189.404C418.542 209.577 436.029 224.348 458.179 212.816Z" stroke="#2E2D2B" stroke-width="2" stroke-miterlimit="10"/>
<path d="M480.599 107.099C463.201 56.274 394.71 38.9925 369.623 57.787C332.631 85.536 364.186 121.668 406.615 128.392C438.327 133.379 500.507 165.264 480.599 107.099Z" stroke="#2E2D2B" stroke-width="2" stroke-miterlimit="10"/>
</g>
</svg>
